<svg width="19" height="21" viewBox="0 0 19 21" fill="none" xmlns="http://www.w3.org/2000/svg">
    <path d="M17.4222 16.762L5.05272 1.22649C4.51366 0.549466 3.45028 0.384068 2.67908 0.857299L1.74775 1.4288C0.976554 1.90203 0.788151 2.83556 1.3272 3.51259L13.6967 19.0481C14.2358 19.7251 15.2991 19.8905 16.0703 19.4173L17.0017 18.8458C17.7729 18.3726 17.9613 17.439 17.4222 16.762Z"
          fill="#FF0000"/>
    <path d="M4.64876 18.8883L17.72 3.8021C18.2896 3.14466 18.1442 2.20523 17.3953 1.70515L16.4909 1.10123C15.742 0.601151 14.6719 0.728868 14.1022 1.38631L1.031 16.4725C0.461367 17.13 0.60685 18.0694 1.35574 18.5695L2.26014 19.1734C3.00903 19.6735 4.07913 19.5457 4.64876 18.8883Z"
          fill="#FF0000"/>
</svg>
