<svg width="254" height="38" viewBox="0 0 254 38" fill="none" xmlns="http://www.w3.org/2000/svg">
    <g clip-path="url(#clip0)">
        <path d="M244 0C239.865 0 236.5 3.38833 236.5 7.55416C236.5 13.4733 243.295 19.585 243.584 19.8417C243.703 19.9475 243.852 20 244 20C244.148 20 244.297 19.9475 244.416 19.8425C244.705 19.585 251.5 13.4733 251.5 7.55416C251.5 3.38833 248.135 0 244 0ZM244 11.6667C241.702 11.6667 239.833 9.7975 239.833 7.5C239.833 5.2025 241.702 3.33333 244 3.33333C246.297 3.33333 248.167 5.2025 248.167 7.5C248.167 9.7975 246.297 11.6667 244 11.6667Z"
              fill="#999999"/>
    </g>
    <path d="M10 29.7424C24.1667 33.5757 59.7 38.9424 88.5 29.7424C104.833 25.409 143.7 19.3424 168.5 29.7424C179.833 32.7424 211.8 36.9423 249 29.7424"
          stroke="#87B5E0" stroke-width="5" stroke-linecap="round" stroke-linejoin="round"/>
    <rect x="91.8652" y="21.7845" width="8" height="14" transform="rotate(-9.81665 91.8652 21.7845)" fill="white"/>
    <rect x="107" y="17.364" width="8" height="14" transform="rotate(-9.81665 107 17.364)" fill="white"/>
    <rect x="125.135" y="16.5795" width="8" height="14" fill="white"/>
    <rect x="141.986" y="16.5222" width="8" height="14" transform="rotate(7.79375 141.986 16.5222)" fill="white"/>
    <rect x="141.986" y="16.5222" width="8" height="14" transform="rotate(7.79375 141.986 16.5222)" fill="white"/>
    <rect x="159.1" y="19.6221" width="8" height="14" transform="rotate(16.7476 159.1 19.6221)" fill="white"/>
    <g clip-path="url(#clip1)">
        <path d="M10 0C5.865 0 2.5 3.38833 2.5 7.55416C2.5 13.4733 9.295 19.585 9.58417 19.8417C9.70333 19.9475 9.85167 20 10 20C10.1483 20 10.2967 19.9475 10.4158 19.8425C10.705 19.585 17.5 13.4733 17.5 7.55416C17.5 3.38833 14.135 0 10 0ZM10 11.6667C7.7025 11.6667 5.83333 9.7975 5.83333 7.5C5.83333 5.2025 7.7025 3.33333 10 3.33333C12.2975 3.33333 14.1667 5.2025 14.1667 7.5C14.1667 9.7975 12.2975 11.6667 10 11.6667Z"
              fill="#999999"/>
    </g>
    <defs>
        <clipPath id="clip0">
            <rect width="20" height="20" fill="white" transform="translate(234)"/>
        </clipPath>
        <clipPath id="clip1">
            <rect width="20" height="20" fill="white"/>
        </clipPath>
    </defs>
</svg>
