<svg width="40" height="40" viewBox="0 0 40 40" fill="none" xmlns="http://www.w3.org/2000/svg">
<path d="M20.0781 0C9.09297 0 0 8.93672 0 19.9219C0 30.907 9.09297 40 20.0781 40C31.0633 40 40 30.907 40 19.9219C40 8.93672 31.0633 0 20.0781 0ZM30.625 22.2656H22.4219V30.625C22.4219 31.9172 21.3695 32.9688 20.0781 32.9688C18.7859 32.9688 17.7344 31.9172 17.7344 30.625V22.2656H9.375C8.08281 22.2656 7.03125 21.2141 7.03125 19.9219C7.03125 18.6297 8.08281 17.5781 9.375 17.5781H17.7344V9.375C17.7344 8.08281 18.7859 7.03125 20.0781 7.03125C21.3695 7.03125 22.4219 8.08281 22.4219 9.375V17.5781H30.625C31.9164 17.5781 32.9688 18.6297 32.9688 19.9219C32.9688 21.2141 31.9164 22.2656 30.625 22.2656Z" fill="#F9B300"/>
</svg>
