<svg width="157" height="69" viewBox="0 0 157 69" fill="none" xmlns="http://www.w3.org/2000/svg">
<path d="M8.208 15.552H0.144V10.8H22.104V15.552H14.04V36H8.208V15.552ZM29.788 19.188C30.46 18.252 31.36 17.544 32.488 17.064C33.64 16.584 34.96 16.344 36.448 16.344V21.528C35.824 21.48 35.404 21.456 35.188 21.456C33.58 21.456 32.32 21.912 31.408 22.824C30.496 23.712 30.04 25.056 30.04 26.856V36H24.424V16.632H29.788V19.188ZM47.4938 16.344C50.4938 16.344 52.7978 17.064 54.4058 18.504C56.0138 19.92 56.8178 22.068 56.8178 24.948V36H51.5618V33.588C50.5058 35.388 48.5378 36.288 45.6578 36.288C44.1698 36.288 42.8738 36.036 41.7698 35.532C40.6898 35.028 39.8618 34.332 39.2858 33.444C38.7098 32.556 38.4218 31.548 38.4218 30.42C38.4218 28.62 39.0938 27.204 40.4378 26.172C41.8058 25.14 43.9058 24.624 46.7378 24.624H51.2018C51.2018 23.4 50.8298 22.464 50.0858 21.816C49.3418 21.144 48.2258 20.808 46.7378 20.808C45.7058 20.808 44.6858 20.976 43.6778 21.312C42.6938 21.624 41.8538 22.056 41.1578 22.608L39.1418 18.684C40.1978 17.94 41.4578 17.364 42.9218 16.956C44.4098 16.548 45.9338 16.344 47.4938 16.344ZM47.0618 32.508C48.0218 32.508 48.8738 32.292 49.6178 31.86C50.3618 31.404 50.8898 30.744 51.2018 29.88V27.9H47.3498C45.0458 27.9 43.8938 28.656 43.8938 30.168C43.8938 30.888 44.1698 31.464 44.7218 31.896C45.2978 32.304 46.0778 32.508 47.0618 32.508ZM81.8395 9.288V36H76.4755V33.768C75.0835 35.448 73.0675 36.288 70.4275 36.288C68.6035 36.288 66.9475 35.88 65.4595 35.064C63.9955 34.248 62.8435 33.084 62.0035 31.572C61.1635 30.06 60.7435 28.308 60.7435 26.316C60.7435 24.324 61.1635 22.572 62.0035 21.06C62.8435 19.548 63.9955 18.384 65.4595 17.568C66.9475 16.752 68.6035 16.344 70.4275 16.344C72.8995 16.344 74.8315 17.124 76.2235 18.684V9.288H81.8395ZM71.3995 31.68C72.8155 31.68 73.9915 31.2 74.9275 30.24C75.8635 29.256 76.3315 27.948 76.3315 26.316C76.3315 24.684 75.8635 23.388 74.9275 22.428C73.9915 21.444 72.8155 20.952 71.3995 20.952C69.9595 20.952 68.7715 21.444 67.8355 22.428C66.8995 23.388 66.4315 24.684 66.4315 26.316C66.4315 27.948 66.8995 29.256 67.8355 30.24C68.7715 31.2 69.9595 31.68 71.3995 31.68Z" fill="#F9B300"/>
<path d="M149.904 35L145.656 29.06L141.264 35H135.144L142.596 25.244L135.396 15.632H141.696L145.8 21.284L150.012 15.632H155.988L148.788 25.1L156.276 35H149.904Z" fill="#F9B300"/>
<path d="M19.016 56.664C19.016 56.872 19 57.168 18.968 57.552H8.912C9.088 58.496 9.544 59.248 10.28 59.808C11.032 60.352 11.96 60.624 13.064 60.624C14.472 60.624 15.632 60.16 16.544 59.232L18.152 61.08C17.576 61.768 16.848 62.288 15.968 62.64C15.088 62.992 14.096 63.168 12.992 63.168C11.584 63.168 10.344 62.888 9.272 62.328C8.2 61.768 7.368 60.992 6.776 60C6.2 58.992 5.912 57.856 5.912 56.592C5.912 55.344 6.192 54.224 6.752 53.232C7.328 52.224 8.12 51.44 9.128 50.88C10.136 50.32 11.272 50.04 12.536 50.04C13.784 50.04 14.896 50.32 15.872 50.88C16.864 51.424 17.632 52.2 18.176 53.208C18.736 54.2 19.016 55.352 19.016 56.664ZM12.536 52.44C11.576 52.44 10.76 52.728 10.088 53.304C9.432 53.864 9.032 54.616 8.888 55.56H16.16C16.032 54.632 15.64 53.88 14.984 53.304C14.328 52.728 13.512 52.44 12.536 52.44ZM26.4421 50.04C28.3301 50.04 29.7701 50.496 30.7621 51.408C31.7701 52.304 32.2741 53.664 32.2741 55.488V63H29.4421V61.44C29.0741 62 28.5461 62.432 27.8581 62.736C27.1861 63.024 26.3701 63.168 25.4101 63.168C24.4501 63.168 23.6101 63.008 22.8901 62.688C22.1701 62.352 21.6101 61.896 21.2101 61.32C20.8261 60.728 20.6341 60.064 20.6341 59.328C20.6341 58.176 21.0581 57.256 21.9061 56.568C22.7701 55.864 24.1221 55.512 25.9621 55.512H29.2741V55.32C29.2741 54.424 29.0021 53.736 28.4581 53.256C27.9301 52.776 27.1381 52.536 26.0821 52.536C25.3621 52.536 24.6501 52.648 23.9461 52.872C23.2581 53.096 22.6741 53.408 22.1941 53.808L21.0181 51.624C21.6901 51.112 22.4981 50.72 23.4421 50.448C24.3861 50.176 25.3861 50.04 26.4421 50.04ZM26.0341 60.984C26.7861 60.984 27.4501 60.816 28.0261 60.48C28.6181 60.128 29.0341 59.632 29.2741 58.992V57.504H26.1781C24.4501 57.504 23.5861 58.072 23.5861 59.208C23.5861 59.752 23.8021 60.184 24.2341 60.504C24.6661 60.824 25.2661 60.984 26.0341 60.984ZM40.0843 63.168C39.0443 63.168 38.0283 63.032 37.0363 62.76C36.0443 62.488 35.2523 62.144 34.6603 61.728L35.8123 59.448C36.3883 59.832 37.0763 60.144 37.8763 60.384C38.6923 60.608 39.4923 60.72 40.2763 60.72C42.0683 60.72 42.9643 60.248 42.9643 59.304C42.9643 58.856 42.7323 58.544 42.2683 58.368C41.8203 58.192 41.0923 58.024 40.0843 57.864C39.0283 57.704 38.1643 57.52 37.4923 57.312C36.8363 57.104 36.2603 56.744 35.7643 56.232C35.2843 55.704 35.0443 54.976 35.0443 54.048C35.0443 52.832 35.5483 51.864 36.5563 51.144C37.5803 50.408 38.9563 50.04 40.6843 50.04C41.5643 50.04 42.4443 50.144 43.3243 50.352C44.2043 50.544 44.9243 50.808 45.4843 51.144L44.3323 53.424C43.2443 52.784 42.0203 52.464 40.6603 52.464C39.7803 52.464 39.1083 52.6 38.6443 52.872C38.1963 53.128 37.9723 53.472 37.9723 53.904C37.9723 54.384 38.2123 54.728 38.6923 54.936C39.1883 55.128 39.9483 55.312 40.9723 55.488C41.9963 55.648 42.8363 55.832 43.4923 56.04C44.1483 56.248 44.7083 56.6 45.1723 57.096C45.6523 57.592 45.8923 58.296 45.8923 59.208C45.8923 60.408 45.3723 61.368 44.3323 62.088C43.2923 62.808 41.8763 63.168 40.0843 63.168ZM60.2414 50.184L54.2414 64.032C53.6814 65.424 53.0014 66.4 52.2014 66.96C51.4014 67.536 50.4334 67.824 49.2974 67.824C48.6574 67.824 48.0254 67.72 47.4014 67.512C46.7774 67.304 46.2654 67.016 45.8654 66.648L47.0654 64.44C47.3534 64.712 47.6894 64.928 48.0734 65.088C48.4734 65.248 48.8734 65.328 49.2734 65.328C49.8014 65.328 50.2334 65.192 50.5694 64.92C50.9214 64.648 51.2414 64.192 51.5294 63.552L51.7454 63.048L46.1534 50.184H49.2734L53.3054 59.664L57.3614 50.184H60.2414ZM76.4533 62.304C76.1013 62.592 75.6693 62.808 75.1573 62.952C74.6613 63.096 74.1333 63.168 73.5733 63.168C72.1653 63.168 71.0773 62.8 70.3092 62.064C69.5413 61.328 69.1573 60.256 69.1573 58.848V52.68H67.0453V50.28H69.1573V47.352H72.1573V50.28H75.5893V52.68H72.1573V58.776C72.1573 59.4 72.3093 59.88 72.6133 60.216C72.9173 60.536 73.3573 60.696 73.9333 60.696C74.6053 60.696 75.1653 60.52 75.6133 60.168L76.4533 62.304ZM84.2593 63.168C82.9633 63.168 81.7953 62.888 80.7553 62.328C79.7153 61.768 78.8993 60.992 78.3073 60C77.7313 58.992 77.4433 57.856 77.4433 56.592C77.4433 55.328 77.7313 54.2 78.3073 53.208C78.8993 52.216 79.7153 51.44 80.7553 50.88C81.7953 50.32 82.9633 50.04 84.2593 50.04C85.5713 50.04 86.7473 50.32 87.7873 50.88C88.8273 51.44 89.6353 52.216 90.2113 53.208C90.8033 54.2 91.0993 55.328 91.0993 56.592C91.0993 57.856 90.8033 58.992 90.2113 60C89.6353 60.992 88.8273 61.768 87.7873 62.328C86.7473 62.888 85.5713 63.168 84.2593 63.168ZM84.2593 60.6C85.3633 60.6 86.2753 60.232 86.9953 59.496C87.7153 58.76 88.0753 57.792 88.0753 56.592C88.0753 55.392 87.7153 54.424 86.9953 53.688C86.2753 52.952 85.3633 52.584 84.2593 52.584C83.1553 52.584 82.2433 52.952 81.5233 53.688C80.8193 54.424 80.4673 55.392 80.4673 56.592C80.4673 57.792 80.8193 58.76 81.5233 59.496C82.2433 60.232 83.1553 60.6 84.2593 60.6ZM113.321 50.184V61.056C113.321 65.568 111.017 67.824 106.409 67.824C105.177 67.824 104.009 67.664 102.905 67.344C101.801 67.04 100.889 66.592 100.169 66L101.513 63.744C102.073 64.208 102.777 64.576 103.625 64.848C104.489 65.136 105.361 65.28 106.241 65.28C107.649 65.28 108.681 64.96 109.337 64.32C109.993 63.68 110.321 62.704 110.321 61.392V60.72C109.809 61.28 109.185 61.704 108.449 61.992C107.713 62.28 106.905 62.424 106.025 62.424C104.809 62.424 103.705 62.168 102.713 61.656C101.737 61.128 100.961 60.392 100.385 59.448C99.8248 58.504 99.5448 57.424 99.5448 56.208C99.5448 54.992 99.8248 53.92 100.385 52.992C100.961 52.048 101.737 51.32 102.713 50.808C103.705 50.296 104.809 50.04 106.025 50.04C106.953 50.04 107.793 50.192 108.545 50.496C109.313 50.8 109.953 51.264 110.465 51.888V50.184H113.321ZM106.481 59.88C107.617 59.88 108.545 59.544 109.265 58.872C110.001 58.184 110.369 57.296 110.369 56.208C110.369 55.136 110.001 54.264 109.265 53.592C108.545 52.92 107.617 52.584 106.481 52.584C105.329 52.584 104.385 52.92 103.649 53.592C102.929 54.264 102.569 55.136 102.569 56.208C102.569 57.296 102.929 58.184 103.649 58.872C104.385 59.544 105.329 59.88 106.481 59.88ZM123.025 63.168C121.729 63.168 120.561 62.888 119.521 62.328C118.481 61.768 117.665 60.992 117.073 60C116.497 58.992 116.209 57.856 116.209 56.592C116.209 55.328 116.497 54.2 117.073 53.208C117.665 52.216 118.481 51.44 119.521 50.88C120.561 50.32 121.729 50.04 123.025 50.04C124.337 50.04 125.513 50.32 126.553 50.88C127.593 51.44 128.401 52.216 128.977 53.208C129.569 54.2 129.865 55.328 129.865 56.592C129.865 57.856 129.569 58.992 128.977 60C128.401 60.992 127.593 61.768 126.553 62.328C125.513 62.888 124.337 63.168 123.025 63.168ZM123.025 60.6C124.129 60.6 125.041 60.232 125.761 59.496C126.481 58.76 126.841 57.792 126.841 56.592C126.841 55.392 126.481 54.424 125.761 53.688C125.041 52.952 124.129 52.584 123.025 52.584C121.921 52.584 121.009 52.952 120.289 53.688C119.585 54.424 119.233 55.392 119.233 56.592C119.233 57.792 119.585 58.76 120.289 59.496C121.009 60.232 121.921 60.6 123.025 60.6ZM133.459 63.168C132.915 63.168 132.451 62.984 132.067 62.616C131.683 62.232 131.491 61.752 131.491 61.176C131.491 60.584 131.675 60.104 132.043 59.736C132.427 59.368 132.899 59.184 133.459 59.184C134.019 59.184 134.483 59.368 134.851 59.736C135.235 60.104 135.427 60.584 135.427 61.176C135.427 61.752 135.235 62.232 134.851 62.616C134.467 62.984 134.003 63.168 133.459 63.168ZM139.319 63.168C138.775 63.168 138.311 62.984 137.927 62.616C137.543 62.232 137.351 61.752 137.351 61.176C137.351 60.584 137.535 60.104 137.903 59.736C138.287 59.368 138.759 59.184 139.319 59.184C139.879 59.184 140.343 59.368 140.711 59.736C141.095 60.104 141.287 60.584 141.287 61.176C141.287 61.752 141.095 62.232 140.711 62.616C140.327 62.984 139.863 63.168 139.319 63.168ZM145.178 63.168C144.634 63.168 144.17 62.984 143.786 62.616C143.402 62.232 143.21 61.752 143.21 61.176C143.21 60.584 143.394 60.104 143.762 59.736C144.146 59.368 144.618 59.184 145.178 59.184C145.738 59.184 146.202 59.368 146.57 59.736C146.954 60.104 147.146 60.584 147.146 61.176C147.146 61.752 146.954 62.232 146.57 62.616C146.186 62.984 145.722 63.168 145.178 63.168Z" fill="#CACACA"/>
<g clip-path="url(#clip0)">
<path d="M128.707 16.4856C125.305 5.61732 113.697 -0.456345 102.827 2.94466C91.9579 6.34707 85.8835 17.957 89.2853 28.8253L90.6209 28.407C87.4493 18.2754 93.1123 7.45178 103.245 4.27956C108.154 2.74385 113.367 3.21118 117.923 5.59493C122.48 7.98006 125.836 11.996 127.372 16.9041C128.908 21.8121 128.441 27.0245 126.057 31.5813C123.673 36.1388 119.657 39.4944 114.748 41.0308C106.532 43.602 97.5264 40.355 92.8423 33.1332L91.6683 33.8944C95.5401 39.8652 102.167 43.3033 109.037 43.3026C111.08 43.3026 113.146 42.9989 115.166 42.365C120.431 40.7174 124.739 37.1177 127.296 32.2299C129.854 27.3421 130.355 21.7505 128.707 16.4856Z" fill="#F9B300"/>
<path d="M104.941 11.7952L105.342 10.4546L98.346 8.35569C98.1011 8.28153 97.8331 8.34871 97.6505 8.53131L96.2512 9.9306C96.0882 10.0936 96.0161 10.3266 96.0581 10.5533C96.1001 10.7799 96.2512 10.971 96.4618 11.0648L102.759 13.8633L103.327 12.5844L97.9613 10.1993L98.3447 9.81584L104.941 11.7952Z" fill="#F9B300"/>
<path d="M111.44 7.62741C111.44 7.24121 111.127 6.92776 110.741 6.92776C110.74 6.92776 110.74 6.92776 110.739 6.92776C109.2 6.92776 107.752 7.52733 106.664 8.61605L100.731 14.5484L98.3162 13.9445C98.0777 13.8851 97.8258 13.9543 97.6515 14.1285L96.2523 15.5278C96.0998 15.6803 96.0256 15.8944 96.0522 16.1079C96.0788 16.3212 96.2019 16.5115 96.3866 16.6221L99.7351 18.6315L101.744 21.98C101.855 22.1647 102.045 22.2878 102.259 22.3144C102.287 22.3179 102.315 22.3193 102.344 22.3193C102.528 22.3193 102.707 22.2466 102.84 22.1151L104.239 20.7158C104.412 20.5416 104.482 20.2897 104.423 20.0511L103.82 17.6394L109.847 11.6714C110.876 10.5946 111.442 9.17993 111.44 7.62741ZM102.551 16.9243C102.376 17.0978 102.305 17.3511 102.364 17.5911L102.968 20.0056L102.483 20.4911L100.845 17.7611C100.785 17.6624 100.703 17.5799 100.605 17.5212L97.8748 15.8833L98.3604 15.3977L100.775 16.0016C101.013 16.061 101.265 15.9918 101.44 15.8176L107.652 9.60469C108.296 8.96033 109.106 8.54263 109.985 8.39079C109.847 9.25556 109.453 10.0573 108.848 10.6905L102.551 16.9243Z" fill="#F9B300"/>
<path d="M110.011 20.1126L107.912 13.0252L106.57 13.4227L108.542 20.0819L108.117 20.457L105.785 15.0459L104.5 15.6L107.214 21.8969C107.303 22.1026 107.485 22.2537 107.704 22.3027C107.755 22.3139 107.806 22.3195 107.857 22.3195C108.026 22.3195 108.191 22.2586 108.32 22.1446L109.803 20.8363C110.007 20.6562 110.088 20.3743 110.011 20.1126Z" fill="#F9B300"/>
<path d="M101.667 40.5781C96.6839 42.9393 92.7749 43.2444 90.9446 41.4149C87.7724 38.2426 91.2175 29.0262 98.9577 19.9756L97.8942 19.066C89.4048 28.9926 86.1395 38.5896 89.9547 42.4042C91.0203 43.469 92.5252 44.0001 94.3918 44.0001C96.5677 44.0001 99.2348 43.2788 102.266 41.8423L101.667 40.5781Z" fill="#F9B300"/>
<path d="M125.351 26.187C125.229 25.9596 124.992 25.8176 124.734 25.8176H122.367L120.462 22.0066C120.343 21.7694 120.101 21.6196 119.835 21.6196H112.839C112.452 21.6196 112.139 21.9331 112.139 22.3193V27.9165C112.139 28.3034 112.452 28.6161 112.839 28.6161H114.938V36.3123C114.938 36.6992 115.25 37.0119 115.637 37.0119H119.136C119.321 37.0119 119.499 36.9384 119.631 36.8062L122.43 34.0076C122.561 33.8768 122.635 33.6991 122.635 33.513V30.9264L125.316 26.9048C125.458 26.6907 125.472 26.4143 125.351 26.187ZM121.352 30.3268C121.276 30.4416 121.235 30.5773 121.235 30.7152V33.2241L118.846 35.6127H116.337H116.336V27.9165C116.336 27.5296 116.024 27.2169 115.637 27.2169H113.538V23.019H119.402L121.308 26.83C121.427 27.0671 121.669 27.2169 121.934 27.2169H123.426L121.352 30.3268Z" fill="#F9B300"/>
<path d="M125.838 20.2203L123.241 15.6754C123.117 15.4571 122.884 15.3228 122.634 15.3228H118.436C118.202 15.3228 117.984 15.4396 117.854 15.6341L116.662 17.4217H114.938V13.9235H118.436C118.622 13.9235 118.799 13.85 118.931 13.7185L121.524 11.1249H124.733V9.72562H121.235C121.049 9.72562 120.871 9.79912 120.74 9.93061L118.146 12.5242H114.238C113.851 12.5242 113.539 12.8376 113.539 13.2238V18.1213C113.539 18.5075 113.851 18.821 114.238 18.821H117.037C117.27 18.821 117.489 18.7042 117.619 18.5097L118.81 16.722H122.228L124.825 21.267C124.95 21.4853 125.182 21.6196 125.433 21.6196H128.231V20.2203H125.838Z" fill="#F9B300"/>
<path d="M108.641 27.2169H104.732L102.839 25.3229C102.708 25.1913 102.529 25.1179 102.344 25.1179H98.8456C98.4594 25.1179 98.146 25.4307 98.146 25.8176V30.7151C98.146 31.102 98.4594 31.4147 98.8456 31.4147H101.644V38.4112C101.644 38.6764 101.794 38.9185 102.031 39.0374C102.13 39.0863 102.238 39.1109 102.344 39.1109C102.492 39.1109 102.64 39.064 102.764 38.9709L105.562 36.872C105.739 36.7398 105.842 36.532 105.842 36.3123V34.5492L109.078 31.9612C109.244 31.8283 109.34 31.6275 109.34 31.4148V27.9166C109.34 27.5296 109.027 27.2169 108.641 27.2169ZM107.941 31.079L104.705 33.667C104.539 33.7999 104.443 34.0007 104.443 34.2134V35.9625L103.044 37.012V30.7151C103.044 30.3282 102.73 30.0155 102.344 30.0155H99.5453V26.5173H102.054L103.948 28.4112C104.079 28.5427 104.257 28.6162 104.443 28.6162H107.941V31.079Z" fill="#F9B300"/>
<path d="M94.5479 17.0615L92.449 13.5633C92.3231 13.3527 92.095 13.2239 91.8494 13.2239H91.1498V14.6232H91.4535L93.0676 17.3133L91.3549 19.026C91.2233 19.1569 91.1499 19.3353 91.1499 19.5207V21.6196H89.0508V23.0189H91.8494C92.2356 23.0189 92.549 22.7055 92.549 22.3193V19.8103L94.4429 17.9164C94.6697 17.689 94.7131 17.3371 94.5479 17.0615Z" fill="#F9B300"/>
<path d="M110.041 2.72917V3.58271L107.772 4.15011C107.694 4.16972 107.62 4.20261 107.554 4.24667L105.792 5.42069L101.958 3.50297L101.332 4.7546L105.529 6.85353C105.628 6.9025 105.735 6.92703 105.842 6.92703C105.978 6.92703 106.113 6.88716 106.23 6.80948L108.228 5.47738L110.91 4.8071C111.221 4.72942 111.44 4.44961 111.44 4.12846V2.72917H110.041Z" fill="#F9B300"/>
</g>
<defs>
<clipPath id="clip0">
<rect width="42" height="42" fill="white" transform="translate(88 2)"/>
</clipPath>
</defs>
</svg>
