<svg width="55" height="55" viewBox="0 0 55 55" fill="none" xmlns="http://www.w3.org/2000/svg">
<path d="M7.32284 48.02C7.71665 48.2349 17.0881 53.2812 27.5 53.2812C38.7802 53.2812 47.3486 48.218 47.7078 48.0025C47.835 47.9262 47.9403 47.8182 48.0135 47.689C48.0866 47.5599 48.125 47.414 48.125 47.2656C48.125 40.3269 45.9973 33.9775 42.134 29.3861C39.4315 26.1742 36.0406 23.9849 32.3007 22.9771C34.59 21.8876 36.4407 20.0519 37.5486 17.7715C38.6566 15.491 38.9559 12.9016 38.3975 10.4285C37.839 7.95544 36.456 5.74587 34.4756 4.16282C32.4953 2.57977 30.0353 1.71741 27.5 1.71741C24.9647 1.71741 22.5047 2.57977 20.5244 4.16282C18.544 5.74587 17.161 7.95544 16.6025 10.4285C16.0441 12.9016 16.3434 15.491 17.4514 17.7715C18.5593 20.0519 20.41 21.8876 22.6993 22.9771C18.9594 23.9849 15.5685 26.1745 12.866 29.3861C9.00271 33.9775 6.875 40.3269 6.875 47.2656C6.875 47.42 6.91659 47.5715 6.9954 47.7043C7.0742 47.837 7.18731 47.9461 7.32284 48.02ZM18.0469 12.8906C18.0469 11.021 18.6013 9.19331 19.64 7.63875C20.6787 6.08419 22.1551 4.87256 23.8824 4.15707C25.6098 3.44159 27.5105 3.25439 29.3442 3.61914C31.1779 3.98389 32.8623 4.88421 34.1844 6.20625C35.5064 7.5283 36.4067 9.21268 36.7715 11.0464C37.1362 12.8801 36.949 14.7808 36.2335 16.5082C35.5181 18.2355 34.3064 19.7119 32.7519 20.7506C31.1973 21.7893 29.3697 22.3437 27.5 22.3437C24.9937 22.3409 22.591 21.344 20.8188 19.5718C19.0466 17.7997 18.0497 15.3969 18.0469 12.8906ZM14.1811 30.4927C17.6709 26.3461 22.4005 24.0625 27.5 24.0625C32.5995 24.0625 37.3291 26.3461 40.8189 30.4927C44.3296 34.6647 46.3034 40.427 46.4024 46.7643C44.5634 47.7598 36.9218 51.5625 27.5 51.5625C18.787 51.5625 10.5811 47.7373 8.59805 46.744C8.70117 40.4146 10.6742 34.6603 14.1811 30.4927Z" fill="#F9B300"/>
</svg>
